<svg width="306" height="526" viewBox="0 0 306 526" fill="none" xmlns="http://www.w3.org/2000/svg">
<path d="M261.3 418.376H44.7L52.7999 383.676C56.9999 365.676 79.2 352.576 105.2 352.576H200.8C226.8 352.576 249 365.776 253.2 383.676L261.3 418.376Z" fill="#E08484"/>
<path d="M261.3 418.376H44.7L52.7999 383.676C56.9999 365.676 79.2 352.576 105.2 352.576H200.8C226.8 352.576 249 365.776 253.2 383.676L261.3 418.376Z" stroke="#4E5A7D" stroke-width="6" stroke-miterlimit="10" stroke-linecap="round" stroke-linejoin="round"/>
<path d="M231 391.976H203.8C193.4 391.976 185 383.576 185 373.176V330.076H121V373.176C121 383.576 112.6 391.976 102.2 391.976H75C35.2 391.976 3 424.176 3 463.976V522.676H303V463.976C303 424.176 270.7 391.976 231 391.976Z" fill="#FBE3D5"/>
<path d="M151.8 349.875C170.136 349.875 185 341.145 185 330.375C185 319.605 170.136 310.875 151.8 310.875C133.464 310.875 118.6 319.605 118.6 330.375C118.6 341.145 133.464 349.875 151.8 349.875Z" fill="#D5B6A5"/>
<path d="M303 463.975V522.675H3V463.975C3 424.175 35.2 391.975 75 391.975H102.2C102.9 391.975 103.6 391.975 104.3 391.875C111.7 411.975 131.1 426.375 153.8 426.375C176.5 426.375 195.8 412.075 203.2 391.975C203.4 391.975 203.6 391.975 203.9 391.975H231C270.7 391.975 303 424.175 303 463.975Z" fill="#E08484"/>
<path d="M125 467.575C96.9 467.575 74 444.675 74 416.575V391.775H233.9V416.575C233.9 444.675 211 467.575 182.9 467.575H125Z" fill="#D87171"/>
<path d="M231 391.976H203.8C193.4 391.976 185 383.576 185 373.176V330.076H121V373.176C121 383.576 112.6 391.976 102.2 391.976H75C35.2 391.976 3 424.176 3 463.976V522.676H303V463.976C303 424.176 270.7 391.976 231 391.976Z" stroke="#4E5A7D" stroke-width="6" stroke-miterlimit="10" stroke-linecap="round" stroke-linejoin="round"/>
<path d="M222.5 89.3761C221.4 74.1761 225.4 62.6761 232.5 60.1761C239.5 57.6761 247.7 64.5761 250.5 66.9761C277 89.1761 260.7 163.476 256.2 182.576L222.5 89.3761Z" fill="#BCAFAA"/>
<path d="M220.5 89.3755C219.4 74.1755 223.4 62.6755 230.5 60.1755C231.9 59.6755 233.3 59.5755 234.7 59.6755" stroke="#4E5A7D" stroke-width="6" stroke-miterlimit="10" stroke-linecap="round" stroke-linejoin="round"/>
<path d="M236.7 59.6758C242.5 60.1758 248.2 64.9758 250.5 66.9758C277 89.1758 260.7 163.476 256.2 182.576L222.5 89.4758" stroke="#4E5A7D" stroke-width="6" stroke-miterlimit="10" stroke-linecap="round" stroke-linejoin="round"/>
<path d="M48.5 189.375V155.675C48.5 117.375 82.4 127.275 120.6 127.275L191.3 129.975C213.5 129.975 226.9 96.8753 239.5 113.075C239.1 101.275 236.9 86.2753 230 70.5753C226.2 61.7753 210.3 28.4753 173.7 13.1753C161.3 7.97527 151 6.77526 144.7 6.07526C120.6 3.37526 110.7 -0.924735 69.3 10.5753C43.1 17.7753 24.3 30.8753 24 36.5753C23.7 41.7753 36.4 40.4753 46.8 48.2753C63.7 60.8753 40.1 89.2753 36.8 125.275C35.4 140.675 36.7 162.275 48.5 189.375Z" fill="#BCAFAA"/>
<path d="M234.7 83.3762C233.4 78.1762 230.8 72.4762 230 70.5762C226.2 61.7762 210.3 28.4762 173.7 13.1762C161.3 7.97623 151 6.77622 144.7 6.07622C120.6 3.37622 104.3 0.776237 62.9 12.2762C36.7 19.4762 21.9 25.5762 24 36.5762C25.3 43.4762 40.8 41.5762 49.8 54.5762C61.8 71.9762 40.1 89.2762 36.8 125.376C35.4 140.776 36.7 162.376 48.5 189.476V155.776C48.5 117.476 82.4 127.376 120.6 127.376L191.3 130.076C213.5 130.076 226.9 96.9762 239.5 113.176" stroke="#4E5A7D" stroke-width="6" stroke-miterlimit="10" stroke-linecap="round" stroke-linejoin="round"/>
<path d="M236 108.775C231 103.375 223.5 101.075 216.3 102.575C198.4 106.375 176.6 108.575 153 108.575C128.4 108.575 105.7 106.175 87.3 102.075C80.1 100.475 72.5 102.675 67.5 108.075C55.8 120.475 48.6 137.175 48.6 155.575V240.975C48.6 295.775 93.1 340.275 147.9 340.275H155.1C209.9 340.275 254.4 295.775 254.4 240.975V155.575C254.3 137.575 247.3 121.175 236 108.775Z" fill="#FBE3D5"/>
<path d="M155 328.075H147.8C93 328.075 48.5 283.575 48.5 228.775V239.075C48.5 293.875 93 338.375 147.8 338.375H155C209.8 338.375 254.3 293.875 254.3 239.075V228.775C254.3 283.575 209.8 328.075 155 328.075Z" fill="#D5B6A5"/>
<path d="M158.4 246.175C158.4 246.175 168.5 243.075 173.2 244.575C176.6 229.875 166.2 216.475 166.2 216.475" stroke="#4E5A7D" stroke-width="6" stroke-miterlimit="10" stroke-linecap="round" stroke-linejoin="round"/>
<path d="M178.6 288.575C172.8 292.375 165.4 294.675 157.2 294.675C139 294.675 124.2 283.275 124.2 269.275" stroke="#4E5A7D" stroke-width="6" stroke-miterlimit="10" stroke-linecap="round" stroke-linejoin="round"/>
<path d="M120.6 195.475C126.233 195.475 130.8 189.744 130.8 182.675C130.8 175.606 126.233 169.875 120.6 169.875C114.967 169.875 110.4 175.606 110.4 182.675C110.4 189.744 114.967 195.475 120.6 195.475Z" fill="#4E5A7D"/>
<path d="M196.2 194.975C201.833 194.975 206.4 189.244 206.4 182.175C206.4 175.106 201.833 169.375 196.2 169.375C190.567 169.375 186 175.106 186 182.175C186 189.244 190.567 194.975 196.2 194.975Z" fill="#4E5A7D"/>
<path d="M236 108.775C231 103.375 223.5 101.075 216.3 102.575C198.4 106.375 176.6 108.575 153 108.575C128.4 108.575 105.7 106.175 87.3 102.075C80.1 100.475 72.5 102.675 67.5 108.075C55.8 120.475 48.6 137.175 48.6 155.575V240.975C48.6 295.775 93.1 340.275 147.9 340.275H155.1C209.9 340.275 254.4 295.775 254.4 240.975V155.575C254.3 137.575 247.3 121.175 236 108.775Z" stroke="#4E5A7D" stroke-width="6" stroke-miterlimit="10" stroke-linecap="round" stroke-linejoin="round"/>
<path d="M230 68.875C230 68.875 250.6 68.875 254.2 107.975" stroke="#4E5A7D" stroke-width="4" stroke-miterlimit="10" stroke-linecap="round" stroke-linejoin="round"/>
<path d="M114.7 20.4746C157.2 22.6746 196.9 43.8746 201.7 80.7746" stroke="#4E5A7D" stroke-width="4" stroke-miterlimit="10" stroke-linecap="round" stroke-linejoin="round"/>
<path d="M85.7 23.6752C91.2 21.9752 98.1999 20.3752 105.4 20.4752" stroke="#4E5A7D" stroke-width="4" stroke-miterlimit="10" stroke-linecap="round" stroke-linejoin="round"/>
<path d="M118.2 43.2754C141.2 46.9754 171 50.5754 182.1 88.4754" stroke="#4E5A7D" stroke-width="4" stroke-miterlimit="10" stroke-linecap="round" stroke-linejoin="round"/>
<path d="M150.2 306.475C150.2 306.475 155.9 309.875 166.2 306.475" stroke="#4E5A7D" stroke-width="6" stroke-miterlimit="10" stroke-linecap="round" stroke-linejoin="round"/>
<path d="M104.1 253.975C114.483 253.975 122.9 245.558 122.9 235.175C122.9 224.792 114.483 216.375 104.1 216.375C93.7171 216.375 85.3 224.792 85.3 235.175C85.3 245.558 93.7171 253.975 104.1 253.975Z" fill="#F5CFC4"/>
<path d="M203.3 253.975C213.683 253.975 222.1 245.558 222.1 235.175C222.1 224.792 213.683 216.375 203.3 216.375C192.917 216.375 184.5 224.792 184.5 235.175C184.5 245.558 192.917 253.975 203.3 253.975Z" fill="#F5CFC4"/>
<path d="M45.7 214.475H47.7V161.875H45.7C39.1 161.875 33.7 167.275 33.7 173.875V202.475C33.7 209.075 39.1 214.475 45.7 214.475Z" fill="#FEF0E3"/>
<path d="M45.7 214.475H47.7V161.875H45.7C39.1 161.875 33.7 167.275 33.7 173.875V202.475C33.7 209.075 39.1 214.475 45.7 214.475Z" stroke="#4E5A7D" stroke-width="6" stroke-miterlimit="10" stroke-linecap="round" stroke-linejoin="round"/>
<path d="M256.3 214.475H254.3V161.875H256.3C262.9 161.875 268.3 167.275 268.3 173.875V202.475C268.3 209.075 262.9 214.475 256.3 214.475Z" fill="#FEF0E3"/>
<path d="M256.3 214.475H254.3V161.875H256.3C262.9 161.875 268.3 167.275 268.3 173.875V202.475C268.3 209.075 262.9 214.475 256.3 214.475Z" stroke="#4E5A7D" stroke-width="6" stroke-miterlimit="10" stroke-linecap="round" stroke-linejoin="round"/>
<path d="M182.9 459.576H125C101.3 459.576 82 440.276 82 416.576V376.576H225.9V416.576C225.9 440.376 206.7 459.576 182.9 459.576Z" fill="#E08484"/>
<path d="M225.9 376.576V416.576C225.9 440.276 206.6 459.576 182.9 459.576H125C101.3 459.576 82 440.276 82 416.576V376.576" stroke="#4E5A7D" stroke-width="6" stroke-miterlimit="10" stroke-linecap="round" stroke-linejoin="round"/>
<path d="M203.1 391.976C195.7 412.076 176.3 426.376 153.7 426.376C131 426.376 111.6 411.976 104.2 391.876C113.6 390.876 121 382.876 121 373.176V369.676H185V373.176C185 383.276 193 391.576 203.1 391.976Z" fill="#FBE3D5"/>
<path d="M196.3 390.375C189.6 407.775 172.9 419.375 153.7 419.375C134.3 419.375 117.5 407.475 110.9 389.775C108.9 390.875 106.6 391.575 104.2 391.875C111.6 411.975 131 426.375 153.7 426.375C176.4 426.375 195.7 412.075 203.1 391.975C200.7 391.875 198.4 391.275 196.3 390.375Z" fill="#EDD4C6"/>
<path d="M185 369.576V373.076C185 381.776 190.9 389.176 199 391.276C201.1 391.876 202.3 394.176 201.4 396.176C192.9 413.976 174.8 426.276 153.8 426.276C132.6 426.276 114.4 413.776 106 395.776C105.1 393.876 106.1 391.576 108.2 390.976C115.7 388.476 121.1 381.476 121.1 373.076V369.576" stroke="#4E5A7D" stroke-width="6" stroke-miterlimit="10" stroke-linecap="round" stroke-linejoin="round"/>
<path d="M102.3 385.475C107.7 408.875 128.6 426.375 153.7 426.375C178.8 426.375 199.7 408.875 205.1 385.475" stroke="#4E5A7D" stroke-width="6" stroke-miterlimit="10" stroke-linecap="round" stroke-linejoin="round"/>
<path d="M116.7 442.075C121.118 442.075 124.7 440.015 124.7 437.475C124.7 434.934 121.118 432.875 116.7 432.875C112.282 432.875 108.7 434.934 108.7 437.475C108.7 440.015 112.282 442.075 116.7 442.075Z" fill="#4E5A7D"/>
<path d="M116.7 437.475V489.575" stroke="#4E5A7D" stroke-width="8" stroke-miterlimit="10" stroke-linecap="round" stroke-linejoin="round"/>
<path d="M189.2 442.075C193.618 442.075 197.2 440.015 197.2 437.475C197.2 434.934 193.618 432.875 189.2 432.875C184.782 432.875 181.2 434.934 181.2 437.475C181.2 440.015 184.782 442.075 189.2 442.075Z" fill="#4E5A7D"/>
<path d="M189.2 437.475V475.575" stroke="#4E5A7D" stroke-width="8" stroke-miterlimit="10" stroke-linecap="round" stroke-linejoin="round"/>
<path d="M119.6 503.376H113.6C109.8 503.376 107 499.876 107.9 496.176L110.5 484.576H122.7L125.3 496.176C126.2 499.876 123.4 503.376 119.6 503.376Z" fill="#FEF0E3"/>
<path d="M119.6 503.376H113.6C109.8 503.376 107 499.876 107.9 496.176L110.5 484.576H122.7L125.3 496.176C126.2 499.876 123.4 503.376 119.6 503.376Z" stroke="#4E5A7D" stroke-width="6" stroke-miterlimit="10" stroke-linecap="round" stroke-linejoin="round"/>
<path d="M192.2 493.976H186.2C182.4 493.976 179.6 490.476 180.5 486.776L183.1 475.176H195.3L197.9 486.776C198.8 490.476 196 493.976 192.2 493.976Z" fill="#FEF0E3"/>
<path d="M192.2 493.976H186.2C182.4 493.976 179.6 490.476 180.5 486.776L183.1 475.176H195.3L197.9 486.776C198.8 490.476 196 493.976 192.2 493.976Z" stroke="#4E5A7D" stroke-width="6" stroke-miterlimit="10" stroke-linecap="round" stroke-linejoin="round"/>
<path opacity="0.58" d="M145 387.875C145 387.875 148.2 388.175 151.8 391.875C151.8 391.875 156 387.875 159.6 387.875" stroke="#D5B6A5" stroke-width="6" stroke-miterlimit="10" stroke-linecap="round" stroke-linejoin="round"/>
<path d="M157.2 84.2754C157.2 84.2754 155 71.6754 132.8 64.7754" stroke="#4E5A7D" stroke-width="4" stroke-miterlimit="10" stroke-linecap="round" stroke-linejoin="round"/>
<path d="M64.1 484.576V522.676" stroke="#4E5A7D" stroke-width="6" stroke-miterlimit="10" stroke-linecap="round" stroke-linejoin="round"/>
<path d="M239.6 484.576V522.676" stroke="#4E5A7D" stroke-width="6" stroke-miterlimit="10" stroke-linecap="round" stroke-linejoin="round"/>
</svg>
