<svg width="252" height="344" viewBox="0 0 252 344" fill="none" xmlns="http://www.w3.org/2000/svg">
<path d="M202.5 89.3761C201.4 74.1761 205.4 62.6761 212.5 60.1761C219.5 57.6761 227.7 64.5761 230.5 66.9761C257 89.1761 240.7 163.476 236.2 182.576L202.5 89.3761Z" fill="#BCAFAA"/>
<path d="M200.5 89.3755C199.4 74.1755 203.4 62.6755 210.5 60.1755C211.9 59.6755 213.3 59.5755 214.7 59.6755" stroke="#4E5A7D" stroke-width="6" stroke-miterlimit="10" stroke-linecap="round" stroke-linejoin="round"/>
<path d="M216.7 59.6758C222.5 60.1758 228.2 64.9758 230.5 66.9758C257 89.1758 240.7 163.476 236.2 182.576L202.5 89.4758" stroke="#4E5A7D" stroke-width="6" stroke-miterlimit="10" stroke-linecap="round" stroke-linejoin="round"/>
<path d="M28.5001 189.375V155.675C28.5001 117.375 62.4001 127.275 100.6 127.275L171.3 129.975C193.5 129.975 206.9 96.8753 219.5 113.075C219.1 101.275 216.9 86.2753 210 70.5753C206.2 61.7753 190.3 28.4753 153.7 13.1753C141.3 7.97527 131 6.77526 124.7 6.07526C100.6 3.37526 90.7001 -0.924735 49.3001 10.5753C23.1001 17.7753 4.30009 30.8753 4.00009 36.5753C3.70009 41.7753 16.4001 40.4753 26.8001 48.2753C43.7001 60.8753 20.1001 89.2753 16.8001 125.275C15.4001 140.675 16.7001 162.275 28.5001 189.375Z" fill="#BCAFAA"/>
<path d="M214.7 83.3762C213.4 78.1762 210.8 72.4762 210 70.5762C206.2 61.7762 190.3 28.4762 153.7 13.1762C141.3 7.97623 131 6.77622 124.7 6.07622C100.6 3.37622 84.3 0.776237 42.9 12.2762C16.7 19.4762 1.90003 25.5762 4.00003 36.5762C5.30003 43.4762 20.8 41.5762 29.8 54.5762C41.8 71.9762 20.1 89.2762 16.8 125.376C15.4 140.776 16.7 162.376 28.5 189.476V155.776C28.5 117.476 62.4 127.376 100.6 127.376L171.3 130.076C193.5 130.076 206.9 96.9762 219.5 113.176" stroke="#4E5A7D" stroke-width="6" stroke-miterlimit="10" stroke-linecap="round" stroke-linejoin="round"/>
<path d="M216 108.775C211 103.375 203.5 101.075 196.3 102.575C178.4 106.375 156.6 108.575 133 108.575C108.4 108.575 85.7001 106.175 67.3001 102.075C60.1001 100.475 52.5001 102.675 47.5001 108.075C35.8001 120.475 28.6001 137.175 28.6001 155.575V240.975C28.6001 295.775 73.1001 340.275 127.9 340.275H135.1C189.9 340.275 234.4 295.775 234.4 240.975V155.575C234.3 137.575 227.3 121.175 216 108.775Z" fill="#FBE3D5"/>
<path d="M135 328.075H127.8C73 328.075 28.5 283.575 28.5 228.775V239.075C28.5 293.875 73 338.375 127.8 338.375H135C189.8 338.375 234.3 293.875 234.3 239.075V228.775C234.3 283.575 189.8 328.075 135 328.075Z" fill="#D5B6A5"/>
<path d="M138.4 246.175C138.4 246.175 148.5 243.075 153.2 244.575C156.6 229.875 146.2 216.475 146.2 216.475" stroke="#4E5A7D" stroke-width="6" stroke-miterlimit="10" stroke-linecap="round" stroke-linejoin="round"/>
<path d="M158.6 288.575C152.8 292.375 145.4 294.675 137.2 294.675C119 294.675 104.2 283.275 104.2 269.275" stroke="#4E5A7D" stroke-width="6" stroke-miterlimit="10" stroke-linecap="round" stroke-linejoin="round"/>
<path d="M100.6 195.475C106.233 195.475 110.8 189.744 110.8 182.675C110.8 175.606 106.233 169.875 100.6 169.875C94.9667 169.875 90.4 175.606 90.4 182.675C90.4 189.744 94.9667 195.475 100.6 195.475Z" fill="#4E5A7D"/>
<path d="M176.2 194.975C181.833 194.975 186.4 189.244 186.4 182.175C186.4 175.106 181.833 169.375 176.2 169.375C170.567 169.375 166 175.106 166 182.175C166 189.244 170.567 194.975 176.2 194.975Z" fill="#4E5A7D"/>
<path d="M216 108.775C211 103.375 203.5 101.075 196.3 102.575C178.4 106.375 156.6 108.575 133 108.575C108.4 108.575 85.7001 106.175 67.3001 102.075C60.1001 100.475 52.5001 102.675 47.5001 108.075C35.8001 120.475 28.6001 137.175 28.6001 155.575V240.975C28.6001 295.775 73.1001 340.275 127.9 340.275H135.1C189.9 340.275 234.4 295.775 234.4 240.975V155.575C234.3 137.575 227.3 121.175 216 108.775Z" stroke="#4E5A7D" stroke-width="6" stroke-miterlimit="10" stroke-linecap="round" stroke-linejoin="round"/>
<path d="M210 68.875C210 68.875 230.6 68.875 234.2 107.975" stroke="#4E5A7D" stroke-width="4" stroke-miterlimit="10" stroke-linecap="round" stroke-linejoin="round"/>
<path d="M94.7001 20.4746C137.2 22.6746 176.9 43.8746 181.7 80.7746" stroke="#4E5A7D" stroke-width="4" stroke-miterlimit="10" stroke-linecap="round" stroke-linejoin="round"/>
<path d="M65.7001 23.6752C71.2001 21.9752 78.2001 20.3752 85.4001 20.4752" stroke="#4E5A7D" stroke-width="4" stroke-miterlimit="10" stroke-linecap="round" stroke-linejoin="round"/>
<path d="M98.2001 43.2754C121.2 46.9754 151 50.5754 162.1 88.4754" stroke="#4E5A7D" stroke-width="4" stroke-miterlimit="10" stroke-linecap="round" stroke-linejoin="round"/>
<path d="M130.2 306.475C130.2 306.475 135.9 309.875 146.2 306.475" stroke="#4E5A7D" stroke-width="6" stroke-miterlimit="10" stroke-linecap="round" stroke-linejoin="round"/>
<path d="M84.1001 253.975C94.483 253.975 102.9 245.558 102.9 235.175C102.9 224.792 94.483 216.375 84.1001 216.375C73.7171 216.375 65.3 224.792 65.3 235.175C65.3 245.558 73.7171 253.975 84.1001 253.975Z" fill="#F5CFC4"/>
<path d="M183.3 253.975C193.683 253.975 202.1 245.558 202.1 235.175C202.1 224.792 193.683 216.375 183.3 216.375C172.917 216.375 164.5 224.792 164.5 235.175C164.5 245.558 172.917 253.975 183.3 253.975Z" fill="#F5CFC4"/>
<path d="M25.7001 214.475H27.7001V161.875H25.7001C19.1001 161.875 13.7001 167.275 13.7001 173.875V202.475C13.7001 209.075 19.1001 214.475 25.7001 214.475Z" fill="#FEF0E3"/>
<path d="M25.7001 214.475H27.7001V161.875H25.7001C19.1001 161.875 13.7001 167.275 13.7001 173.875V202.475C13.7001 209.075 19.1001 214.475 25.7001 214.475Z" stroke="#4E5A7D" stroke-width="6" stroke-miterlimit="10" stroke-linecap="round" stroke-linejoin="round"/>
<path d="M236.3 214.475H234.3V161.875H236.3C242.9 161.875 248.3 167.275 248.3 173.875V202.475C248.3 209.075 242.9 214.475 236.3 214.475Z" fill="#FEF0E3"/>
<path d="M236.3 214.475H234.3V161.875H236.3C242.9 161.875 248.3 167.275 248.3 173.875V202.475C248.3 209.075 242.9 214.475 236.3 214.475Z" stroke="#4E5A7D" stroke-width="6" stroke-miterlimit="10" stroke-linecap="round" stroke-linejoin="round"/>
<path d="M137.2 84.2754C137.2 84.2754 135 71.6754 112.8 64.7754" stroke="#4E5A7D" stroke-width="4" stroke-miterlimit="10" stroke-linecap="round" stroke-linejoin="round"/>
</svg>
